<?xml version="1.0" encoding="utf-8"?>
<!-- Generator: Adobe Illustrator 18.1.0, SVG Export Plug-In . SVG Version: 6.00 Build 0)  -->
<!DOCTYPE svg PUBLIC "-//W3C//DTD SVG 1.1//EN" "http://www.w3.org/Graphics/SVG/1.1/DTD/svg11.dtd">
<svg version="1.1" id="Layer_1" xmlns="http://www.w3.org/2000/svg" xmlns:xlink="http://www.w3.org/1999/xlink" x="0px" y="0px"
	 viewBox="0 0 196.3 276.8" enable-background="new 0 0 196.3 276.8" xml:space="preserve">
<g id="jackhammerMan">
	<g id="body_1_">
		<circle fill="#BCC935" cx="98.2" cy="118.8" r="88.6"/>
		<rect x="37.2" y="144" fill="#BCC935" width="121.9" height="45.2"/>
		<rect x="34.2" y="133.9" fill="#FFFFFF" width="127.7" height="20.2"/>
		<polygon fill="#E8B276" points="98.2,125.7 64.2,75.9 131.5,75.9 		"/>
		<g>
			<path fill="#C99669" d="M88,107c-0.9,0-1.6-0.7-1.7-1.6l-0.1-5c0-0.9,0.7-1.7,1.6-1.7c0.9,0,1.7,0.7,1.7,1.6l0.1,5
				C89.7,106.3,89,107,88,107C88,107,88,107,88,107z"/>
			<path fill="#C99669" d="M97.7,109.8c-0.9,0-1.6-0.7-1.7-1.6l-0.1-5c0-0.9,0.7-1.7,1.6-1.7c1,0,1.7,0.7,1.7,1.6l0.1,5
				C99.4,109.1,98.6,109.8,97.7,109.8C97.7,109.8,97.7,109.8,97.7,109.8z"/>
			<path fill="#C99669" d="M92.8,112.4c-0.9,0-1.6-0.7-1.7-1.6l-0.1-5c0-0.9,0.7-1.7,1.6-1.7c0.9,0,1.7,0.7,1.7,1.6l0.1,5
				C94.5,111.6,93.8,112.4,92.8,112.4C92.8,112.4,92.8,112.4,92.8,112.4z"/>
			<path fill="#C99669" d="M102.5,112.5c-0.9,0-1.6-0.7-1.7-1.6l-0.1-5c0-0.9,0.7-1.7,1.6-1.7c0,0,0,0,0,0c0.9,0,1.6,0.7,1.7,1.6
				l0.1,5C104.2,111.8,103.4,112.5,102.5,112.5C102.5,112.5,102.5,112.5,102.5,112.5z"/>
			<path fill="#C99669" d="M107.5,107c-0.9,0-1.6-0.7-1.7-1.6l-0.1-5c0-0.9,0.7-1.7,1.6-1.7c0.9,0,1.7,0.7,1.7,1.6l0.1,5
				C109.2,106.2,108.4,107,107.5,107C107.5,107,107.5,107,107.5,107z"/>
		</g>
	</g>
	<rect id="shadow_1_" x="0" y="272" opacity="0.22" width="196.3" height="4.8"/>
	<g id="jackhammerTip">
		<rect x="92.5" y="210.9" fill="#C1C1C0" width="11.4" height="61.1"/>
		<rect x="92.5" y="265.2" fill="#999999" width="11.4" height="6.8"/>
	</g>
	<g id="head_1_">
		<path fill="#FDD1A2" d="M98.2,96.2L98.2,96.2c-21.2,0-38.6-17.4-38.6-38.6v-6.7c0-21.2,17.4-38.6,38.6-38.6h0
			c21.2,0,38.6,17.4,38.6,38.6v6.7C136.7,78.8,119.4,96.2,98.2,96.2z"/>
		<g id="hat_1_">
			<path fill="#FAA31C" d="M55.6,42.5h85.2c0-24.5-22.2-41.2-42.6-41.2h0C77.8,1.2,55.6,17,55.6,42.5z"/>
			<polygon fill="#FABB48" points="98,33 85.1,0 110.7,0 			"/>
			<polygon fill="#FABB48" points="145.4,45.7 50.9,45.7 56,36.8 140.4,36.8 			"/>
		</g>
		<g id="mask_1_">
			<ellipse fill="#FFFFFF" cx="98.2" cy="76.6" rx="23.1" ry="19.6"/>
			<rect x="85" y="72.6" fill="#D8D8D8" width="26.4" height="2.2"/>
			<rect x="85" y="78.5" fill="#D8D8D8" width="26.4" height="2.2"/>
			<rect x="85" y="84.4" fill="#D8D8D8" width="26.4" height="2.2"/>
		</g>
	</g>
	<g id="legs_1_">
		<path fill="#566275" d="M169.2,171.9H27.1c8,10.8,18.4,19.7,30.5,25.9c-0.7,1.1-1.4,2.3-2.1,3.6c-3.3,5.9-6.5,13.3-8.4,22.1
			c-4.1,0.7-7.3,4.3-7.3,8.7c0,3.7,2.3,6.9,5.5,8.2c0,8.8,1.5,18.6,5.2,29.2l17.6-6.1c-6.5-18.7-5.4-36.2,3.3-52.2
			c1.3-2.3,2.6-4.5,4-6.4c7.3,1.9,14.9,3,22.8,3c7.9,0,15.5-1,22.8-3c1.2,1.8,2.5,3.7,3.7,5.8c9,16.1,10.3,33.9,3.7,52.8l17.6,6.1
			c3.7-10.6,5.2-20.3,5.2-29.2c3.2-1.3,5.5-4.5,5.5-8.2c0-4.3-3.1-7.9-7.3-8.7c-1.9-8.8-5.1-16.2-8.4-22.1c-0.7-1.2-1.4-2.4-2.1-3.6
			C150.8,191.6,161.2,182.7,169.2,171.9z"/>
		<path fill="#333333" d="M147.8,249.2c12.6,0,22.8,10.2,22.8,22.8H125C125,259.4,135.2,249.2,147.8,249.2z"/>
		<path fill="#333333" d="M48.5,249.2c-12.6,0-22.8,10.2-22.8,22.8h45.6C71.3,259.4,61.1,249.2,48.5,249.2z"/>
	</g>
	<g id="jackhammer_1_">
		<rect x="54.5" y="184.5" fill="#262626" width="87.3" height="10.3"/>
		<rect x="54.5" y="184.5" fill="#333333" width="87.3" height="5.1"/>
		<path fill="#333333" d="M99.7,232.6h-3.1c-6.1,0-11-5-11-11v-34.5c0-6.1,5-11,11-11h3.1c6.1,0,11,5,11,11v34.5
			C110.8,227.6,105.8,232.6,99.7,232.6z"/>
		<rect x="85.6" y="200.8" fill="#262626" width="25.1" height="19.1"/>
		<path fill="#FAA31C" d="M105.4,213.3H90.9c-6.1,0-11-5-11-11v-26.1c0-6.1,5-11,11-11h14.5c6.1,0,11,5,11,11v26.1
			C116.5,208.3,111.5,213.3,105.4,213.3z"/>
		<rect x="88.9" y="165.1" fill="#333333" width="18.5" height="9.1"/>
	</g>
	<g id="arms_1_">
		<path fill="#FDD1A2" d="M182.8,145.4l-15.8,50.4c-3,9.4-13.2,14.7-22.6,11.7l0,0c-9.4-3-14.7-13.2-11.7-22.6l15.8-50.4l21.6-68
			C185.9,88.5,191.6,117.6,182.8,145.4z"/>
		<path fill="#FDD1A2" d="M13.6,145.5l15.8,50.4c3,9.4,13.2,14.7,22.6,11.7l0,0c9.4-3,14.7-13.2,11.7-22.6l-15.8-50.4l-21.6-68
			C10.4,88.6,4.7,117.6,13.6,145.5z"/>
		<path fill="#D6A070" d="M25.9,172.5c-0.5,0-0.9-0.3-1.1-0.8c-0.2-0.6,0.2-1.2,0.7-1.4l8.6-2.5c0.6-0.2,1.2,0.2,1.4,0.7
			c0.2,0.6-0.2,1.2-0.7,1.4l-8.6,2.5C26.1,172.5,26,172.5,25.9,172.5z"/>
		<path fill="#D6A070" d="M28.8,181.8c-0.5,0-0.9-0.3-1.1-0.8c-0.2-0.6,0.2-1.2,0.7-1.4l8.6-2.5c0.6-0.2,1.2,0.2,1.4,0.7
			c0.2,0.6-0.2,1.2-0.7,1.4l-8.6,2.5C29,181.8,28.9,181.8,28.8,181.8z"/>
		<path fill="#D6A070" d="M23.4,163.1c-0.5,0-0.9-0.3-1.1-0.8c-0.2-0.6,0.2-1.2,0.7-1.4l8.6-2.5c0.6-0.2,1.2,0.2,1.4,0.7
			c0.2,0.6-0.2,1.2-0.7,1.4l-8.6,2.5C23.6,163.1,23.5,163.1,23.4,163.1z"/>
		<path fill="#D6A070" d="M20.6,153.8c-0.5,0-0.9-0.3-1.1-0.8c-0.2-0.6,0.2-1.2,0.7-1.4l8.6-2.5c0.6-0.2,1.2,0.2,1.4,0.7
			c0.2,0.6-0.2,1.2-0.7,1.4l-8.6,2.5C20.8,153.8,20.7,153.8,20.6,153.8z"/>
		<path fill="#D6A070" d="M18.1,144.4c-0.5,0-0.9-0.3-1.1-0.8c-0.2-0.6,0.2-1.2,0.7-1.4l8.6-2.5c0.6-0.2,1.2,0.2,1.4,0.7
			c0.2,0.6-0.2,1.2-0.7,1.4l-8.6,2.5C18.3,144.4,18.2,144.4,18.1,144.4z"/>
		<path fill="#D6A070" d="M29.8,166.4c-0.5,0-0.9-0.3-1.1-0.8c-0.2-0.6,0.2-1.2,0.7-1.4l8.6-2.5c0.6-0.2,1.2,0.2,1.4,0.7
			c0.2,0.6-0.2,1.2-0.7,1.4l-8.6,2.5C30,166.4,29.9,166.4,29.8,166.4z"/>
		<path fill="#D6A070" d="M32.6,175.7c-0.5,0-0.9-0.3-1.1-0.8c-0.2-0.6,0.2-1.2,0.7-1.4l8.6-2.5c0.6-0.2,1.2,0.2,1.4,0.7
			c0.2,0.6-0.2,1.2-0.7,1.4l-8.6,2.5C32.8,175.7,32.7,175.7,32.6,175.7z"/>
		<path fill="#D6A070" d="M27.3,157c-0.5,0-0.9-0.3-1.1-0.8c-0.2-0.6,0.2-1.2,0.7-1.4l8.6-2.5c0.6-0.2,1.2,0.2,1.4,0.7
			c0.2,0.6-0.2,1.2-0.7,1.4l-8.6,2.5C27.5,157,27.4,157,27.3,157z"/>
		<path fill="#D6A070" d="M24.4,147.7c-0.5,0-0.9-0.3-1.1-0.8c-0.2-0.6,0.2-1.2,0.7-1.4l8.6-2.5c0.6-0.2,1.2,0.2,1.4,0.7
			c0.2,0.6-0.2,1.2-0.7,1.4l-8.6,2.5C24.6,147.7,24.5,147.7,24.4,147.7z"/>
		<path fill="#D6A070" d="M21.9,138.3c-0.5,0-0.9-0.3-1.1-0.8c-0.2-0.6,0.2-1.2,0.7-1.4l8.6-2.5c0.6-0.2,1.2,0.2,1.4,0.7
			c0.2,0.6-0.2,1.2-0.7,1.4l-8.6,2.5C22.1,138.3,22,138.3,21.9,138.3z"/>
		<path fill="#D6A070" d="M15.2,135.1c-0.5,0-0.9-0.3-1.1-0.8c-0.2-0.6,0.2-1.2,0.7-1.4l8.6-2.5c0.6-0.2,1.2,0.2,1.4,0.7
			c0.2,0.6-0.2,1.2-0.7,1.4l-8.6,2.5C15.4,135.1,15.3,135.1,15.2,135.1z"/>
		<path fill="#D6A070" d="M169.9,172.5c-0.1,0-0.2,0-0.3,0l-8.6-2.5c-0.6-0.2-0.9-0.8-0.7-1.4c0.2-0.6,0.8-0.9,1.4-0.7l8.6,2.5
			c0.6,0.2,0.9,0.8,0.7,1.4C170.9,172.2,170.4,172.5,169.9,172.5z"/>
		<path fill="#D6A070" d="M167.1,181.8c-0.1,0-0.2,0-0.3,0l-8.6-2.5c-0.6-0.2-0.9-0.8-0.7-1.4c0.2-0.6,0.8-0.9,1.4-0.7l8.6,2.5
			c0.6,0.2,0.9,0.8,0.7,1.4C168.1,181.5,167.6,181.8,167.1,181.8z"/>
		<path fill="#D6A070" d="M172.5,163.1c-0.1,0-0.2,0-0.3,0l-8.6-2.5c-0.6-0.2-0.9-0.8-0.7-1.4c0.2-0.6,0.8-0.9,1.4-0.7l8.6,2.5
			c0.6,0.2,0.9,0.8,0.7,1.4C173.4,162.8,172.9,163.1,172.5,163.1z"/>
		<path fill="#D6A070" d="M175.3,153.8c-0.1,0-0.2,0-0.3,0l-8.6-2.5c-0.6-0.2-0.9-0.8-0.7-1.4c0.2-0.6,0.8-0.9,1.4-0.7l8.6,2.5
			c0.6,0.2,0.9,0.8,0.7,1.4C176.2,153.5,175.8,153.8,175.3,153.8z"/>
		<path fill="#D6A070" d="M177.8,144.4c-0.1,0-0.2,0-0.3,0l-8.6-2.5c-0.6-0.2-0.9-0.8-0.7-1.4c0.2-0.6,0.8-0.9,1.4-0.7l8.6,2.5
			c0.6,0.2,0.9,0.8,0.7,1.4C178.7,144.1,178.3,144.4,177.8,144.4z"/>
		<path fill="#D6A070" d="M166.1,166.4c-0.1,0-0.2,0-0.3,0l-8.6-2.5c-0.6-0.2-0.9-0.8-0.7-1.4c0.2-0.6,0.8-0.9,1.4-0.7l8.6,2.5
			c0.6,0.2,0.9,0.8,0.7,1.4C167,166.1,166.6,166.4,166.1,166.4z"/>
		<path fill="#D6A070" d="M163.3,175.7c-0.1,0-0.2,0-0.3,0l-8.6-2.5c-0.6-0.2-0.9-0.8-0.7-1.4c0.2-0.6,0.8-0.9,1.4-0.7l8.6,2.5
			c0.6,0.2,0.9,0.8,0.7,1.4C164.2,175.4,163.8,175.7,163.3,175.7z"/>
		<path fill="#D6A070" d="M168.6,157c-0.1,0-0.2,0-0.3,0l-8.6-2.5c-0.6-0.2-0.9-0.8-0.7-1.4c0.2-0.6,0.8-0.9,1.4-0.7l8.6,2.5
			c0.6,0.2,0.9,0.8,0.7,1.4C169.5,156.7,169.1,157,168.6,157z"/>
		<path fill="#D6A070" d="M171.4,147.7c-0.1,0-0.2,0-0.3,0l-8.6-2.5c-0.6-0.2-0.9-0.8-0.7-1.4c0.2-0.6,0.8-0.9,1.4-0.7l8.6,2.5
			c0.6,0.2,0.9,0.8,0.7,1.4C172.4,147.4,171.9,147.7,171.4,147.7z"/>
		<path fill="#D6A070" d="M174,138.3c-0.1,0-0.2,0-0.3,0l-8.6-2.5c-0.6-0.2-0.9-0.8-0.7-1.4c0.2-0.6,0.8-0.9,1.4-0.7l8.6,2.5
			c0.6,0.2,0.9,0.8,0.7,1.4C174.9,138,174.4,138.3,174,138.3z"/>
		<path fill="#D6A070" d="M180.7,135.1c-0.1,0-0.2,0-0.3,0l-8.6-2.5c-0.6-0.2-0.9-0.8-0.7-1.4c0.2-0.6,0.8-0.9,1.4-0.7l8.6,2.5
			c0.6,0.2,0.9,0.8,0.7,1.4C181.6,134.8,181.2,135.1,180.7,135.1z"/>
	</g>
</g>
</svg>
