<svg xmlns="http://www.w3.org/2000/svg" viewBox="0 0 683.2 715.1"><g id="Layer_2" data-name="Layer 2"><g id="Peach_1" data-name="Peach 1"><line x1="402.9" y1="193" x2="402.9" y2="70.6" style="fill:none;stroke:#459042;stroke-miterlimit:10;stroke-width:12px"/><path d="M409,71.3C350.6,40.1,270.5-5.2,193.8.5S44.9,32.5,0,71.3" style="fill:#459042"/><path d="M409,70.6c-58.4,31.2-138.5,76.5-215.2,70.9S44.9,109.4,0,70.6" style="fill:#1e7239"/><path d="M402.9,544.6A392.9,392.9,0,0,1,123,428c2.7,50.5,17.6,100.4,44.1,143.5,50.2,81.3,140.5,136.4,235.8,143.6,95.2-7.2,185.6-62.3,235.7-143.6,26.6-43.1,41.5-93,44.2-143.5A393.3,393.3,0,0,1,402.9,544.6Z" style="fill:#ef3b26"/><path d="M402.9,544.6A393.3,393.3,0,0,0,682.8,428c2.4-44.8-4.7-90.1-21.8-131.6-19.1-46.4-51.2-89.1-95.8-111.9S442.3,162.1,402.9,193c-39.5-30.9-117.7-31.3-162.3-8.5S163.8,250,144.7,296.4A303.5,303.5,0,0,0,123,428,392.9,392.9,0,0,0,402.9,544.6Z" style="fill:#f36c28"/></g></g></svg>