<svg id="Peach-3" xmlns="http://www.w3.org/2000/svg" viewBox="0 0 792 792"><path d="M430.9,131.2l.5-.3h-1.1c-52.4-29-123.8-70.5-192.2-65.3S105.3,95.1,64.9,130.9h-.7l.3.3-.3.3h.7c40.4,35.8,104.8,60.1,173.2,65.3s139.8-36.3,192.2-65.3h1.1Z" style="fill:#1e7239"/><path d="M677.1,337.6c-17.7-43.2-47.6-82.9-89.2-104.1s-114.3-20.9-151,7.9c-36.8-28.8-109.5-29.2-151.1-7.9s-71.5,60.9-89.2,104.1c-15.9,38.6-22.5,80.8-20.3,122.5,2.6,47,16.4,93.5,41.2,133.6,46.6,75.7,130.7,126.9,219.4,133.7,88.6-6.8,172.7-58,219.4-133.7,24.7-40.1,38.6-86.6,41.1-133.6A281.8,281.8,0,0,0,677.1,337.6Z" style="fill:#f36c28"/><path d="M435.5,370.3c0,54.7-10.6,104.1-27.8,139.8,12.1-1.4,23.9-8.8,34.2-22.1,19.3-25,32.4-70.1,34.1-117.7-1.7-47.5-14.8-92.6-34.1-117.6-10.3-13.3-22.1-20.7-34.2-22.1C424.9,266.3,435.5,315.7,435.5,370.3Z" style="fill:#231f20"/><path d="M78.3,137.4a223.8,223.8,0,0,0,39.1,23c6.9,3.2,13.8,6,20.9,8.7s14.2,4.9,21.4,7,14.5,3.9,21.8,5.5,14.7,3,22.1,4.2,14.9,2.1,22.3,2.8l11.2.9c3.7.2,7.5.4,11,.4a169.1,169.1,0,0,0,42.9-5.2,277.7,277.7,0,0,0,41.8-14.1c13.6-5.8,27.1-12.5,40.4-19.4s26.6-14.5,40.1-21.9a12.4,12.4,0,0,1,16.8,5,11.4,11.4,0,0,1,1.5,5.5v.2l.7,25,.6,25c.2,8.4.3,16.7.4,25l.2,12.5v12.8a12.2,12.2,0,0,1-12.1,12.3,13.2,13.2,0,0,1-6.5-1.8,86.1,86.1,0,0,0-9-4.9q-4.8-2.1-9.9-3.9c-3.4-1.1-6.8-2.1-10.4-3l-5.3-1.1a51.2,51.2,0,0,0-5.4-1,164.9,164.9,0,0,0-44.4-1.1c-3.7.4-7.4.9-11.1,1.6l-5.4,1.1-5.4,1.3c-3.6,1-7,2.2-10.4,3.5l-2.6,1-2.4,1.1a45.9,45.9,0,0,0-5,2.4A143.4,143.4,0,0,0,252,274.6,185.1,185.1,0,0,0,223.9,311a201.8,201.8,0,0,0-10.8,20.6l-2.3,5.3-2.3,5.4c-1.3,3.7-2.7,7.3-3.9,11A235.8,235.8,0,0,0,194,398.7a253.7,253.7,0,0,0,20,136.8,237.9,237.9,0,0,0,23,40.1,248.3,248.3,0,0,0,30,34.7,266,266,0,0,0,75.5,50.8c27.7,12.4,57.3,20.2,87.3,22.1h-2a247.1,247.1,0,0,0,86.9-24.8c3.4-1.7,6.7-3.5,10-5.3s6.6-3.7,9.8-5.7q9.8-5.9,18.9-12.6c6-4.5,12-9.2,17.6-14.2s11.2-10.2,16.4-15.6,10.1-11.2,14.8-17,9.1-12,13.2-18.3,7.9-12.8,11.4-19.4a211.7,211.7,0,0,0,9.7-20.4,223.2,223.2,0,0,0,7.7-21.2q3.4-10.8,6-21.9c1.6-7.4,3-14.8,3.9-22.4.3-1.8.5-3.7.7-5.6s.5-3.8.6-5.7l.5-5.6.3-5.7a256.7,256.7,0,0,0-11.6-90,227.7,227.7,0,0,0-17.9-41.9,192.1,192.1,0,0,0-26.5-36.8,144.8,144.8,0,0,0-35.3-28,105.3,105.3,0,0,0-20.6-8.7,148.9,148.9,0,0,0-22.4-5.1,171.5,171.5,0,0,0-46.4-.8,136.1,136.1,0,0,0-22.8,4.9,91.2,91.2,0,0,0-21.3,9.8h0a1.4,1.4,0,0,1-1.9-.4,1.5,1.5,0,0,1,.3-1.9,89.4,89.4,0,0,1,21-12.6,127.6,127.6,0,0,1,23.4-7.5,153.2,153.2,0,0,1,24.3-3.6,171.1,171.1,0,0,1,24.8,0,175.1,175.1,0,0,1,24.7,3.6,118.2,118.2,0,0,1,24.1,8.2,157.4,157.4,0,0,1,41.5,28.8,201.8,201.8,0,0,1,31.7,39.1c4.4,7.1,8.5,14.5,12.2,22q2.7,5.7,5.1,11.4c.8,2,1.7,3.9,2.4,5.8l2.3,5.9A262.3,262.3,0,0,1,680,392.5a233.6,233.6,0,0,1,3,25c.6,8.4.8,16.8.7,25.2a280.2,280.2,0,0,1-5.4,50c-1.6,8.3-3.7,16.5-6,24.6s-5.2,16-8.4,23.9-6.6,15.5-10.5,23-8.2,14.9-12.8,22-9.6,13.9-14.9,20.5a253.3,253.3,0,0,1-16.8,19c-5.9,6.1-12,11.9-18.4,17.4s-13.1,10.6-20,15.5-13.9,9.4-21.2,13.7c-3.6,2.1-7.3,4.1-11,6.1s-7.5,3.8-11.4,5.5a270.4,270.4,0,0,1-97.1,25.2h-.3a9.6,9.6,0,0,1-1.7,0,264.6,264.6,0,0,1-95.2-27.2,272.2,272.2,0,0,1-78.3-59.1,265.9,265.9,0,0,1-29.7-39c-1.2-1.7-2.2-3.5-3.2-5.2l-1.6-2.6-1.5-2.7c-.9-1.8-2-3.6-2.9-5.4l-2.8-5.4c-.9-1.8-1.7-3.7-2.6-5.5s-1.8-3.7-2.6-5.5l-2.4-5.6-2.3-5.7a286.4,286.4,0,0,1-19.3-94.4,282.4,282.4,0,0,1,12.7-95.3c2.4-7.7,5.1-15.3,8.2-22.7s6.6-14.8,10.4-22,8.1-14.1,12.6-20.8a214.9,214.9,0,0,1,15.1-19.4,164.6,164.6,0,0,1,37.8-32.1l5.5-3.2,2.8-1.5,2.9-1.4c3.9-1.8,7.9-3.4,11.9-4.8l6-2,6.1-1.7c4.1-1.1,8.2-1.9,12.3-2.7a190.9,190.9,0,0,1,25-2.6,164.7,164.7,0,0,1,25.3.9,147.6,147.6,0,0,1,25.2,4.9c4.2,1.3,8.3,2.7,12.4,4.4s8.2,3.8,12.1,6l-18.6,10.8-.4-12.5-.4-12.5-.6-25-.5-25-.4-25,18.3,10.6c-13.4,7.2-27,14.5-40.9,21.4S356,186,341.3,191.7a284.3,284.3,0,0,1-45.8,13.6,185,185,0,0,1-48.2,3.4c-4.2-.3-8-.8-11.9-1.2l-11.7-1.6q-11.5-2-23.1-4.5c-7.6-1.7-15.2-3.7-22.7-5.9s-14.9-4.8-22.2-7.6-14.4-5.9-21.5-9.2-13.9-7.1-20.6-11a200.1,200.1,0,0,1-37.1-28.1,1.5,1.5,0,0,1,0-2,1.4,1.4,0,0,1,1.8-.2Z" style="fill:#231f20"/><path d="M431.4,235.3c-1-9-1.9-17.9-2.8-26.9s-1.6-18-2.4-27-1.4-17.9-2.4-26.9-1.7-17.9-2.6-26.9l2.7,4.2c-28.1-14.5-55.8-29.2-84.8-40.3-7.2-2.8-14.5-5.3-21.8-7.6s-14.8-4.1-22.3-5.7A192,192,0,0,0,272.4,75a142.1,142.1,0,0,0-22.6-.3,297,297,0,0,0-45.7,7l-5.6,1.4-5.7,1.4-2.8.8-2.8.8-5.6,1.6c-3.7,1-7.4,2.3-11.1,3.5s-7.4,2.5-11,3.8a389.3,389.3,0,0,0-43,18.5l-5.3,2.7-5.1,2.9-5.2,2.8-5,3.1c-3.4,1.9-6.6,4.2-10,6.3-1.6,1-3.2,2.2-4.8,3.4l-4.8,3.4,4.2-4.1c1.5-1.4,2.9-2.8,4.4-4,3-2.6,6-5.2,9.2-7.6l4.8-3.6c1.5-1.3,3.2-2.3,4.8-3.5l4.9-3.4,5.1-3.2A299.7,299.7,0,0,1,156,86.3a324.1,324.1,0,0,1,45.2-16.2,281.2,281.2,0,0,1,47.6-8.8,156.7,156.7,0,0,1,24.7-.1,179.9,179.9,0,0,1,24.3,3.4,215.1,215.1,0,0,1,23.6,6.1c7.7,2.3,15.3,5.1,22.7,8.1,29.9,12,57.6,28,84.7,44l.3.2a4.8,4.8,0,0,1,2.3,4c.4,9,.6,18,.9,27.1.1,4.5.2,9,.2,13.5s-.1,9-.1,13.5c-.1,9.1-.1,18.1-.3,27.1S431.8,226.3,431.4,235.3Z" style="fill:#231f20"/></svg>